# xmcd
#
# Track frame offsets: 
#        150
#        15618
#        30707
#        50671
#        72589
#        91197
#        105913
#        123437
#        141753
#        154448
#        179069
#
# Disc length: 2588 seconds
#
# Revision: 0
# Processed by: cddbd v1.5.2PL0 Copyright (c) Steve Scherf et al.
# Submitted via: ExactAudioCopy v1.0b3
#
DISCID=980a1a0b
DTITLE=Alejandro Fernández - Confidencias
DYEAR=2013
DGENRE=Pop-Folk
TTITLE0=Te Quiero, Te Quiero
TTITLE1=A Pesar De Todo
TTITLE2=Cóncavo y Convexo
TTITLE3=Hoy Tengo Ganas De Ti
TTITLE4=Procuro Olvidarte
TTITLE5=Porque Te Vas
TTITLE6=Nobody Knows When You're Down And Out
TTITLE7=Cenizas
TTITLE8=Desahogo
TTITLE9=Me Olvidé De Vivir
TTITLE10=Olvidarte
EXTD=
EXTT0=
EXTT1=
EXTT2=
EXTT3=
EXTT4=
EXTT5=
EXTT6=
EXTT7=
EXTT8=
EXTT9=
EXTT10=
PLAYORDER=
